<svg id="adobe_logo" xmlns="http://www.w3.org/2000/svg" width="400" height="400" viewBox="0 0 400 400">
  <path id="Path_5345" data-name="Path 5345" d="M0,75A75,75,0,0,1,75,0H325a75,75,0,0,1,75,75V325a75,75,0,0,1-75,75H75A75,75,0,0,1,0,325Z" fill="#fa0f00"/>
  <path id="Path_5346" data-name="Path 5346" d="M279.485,269.241H232.353a10.317,10.317,0,0,1-9.666-6.231L171.52,143.375a2.254,2.254,0,0,0-4.317-.056l-31.886,75.958a2.7,2.7,0,0,0,2.491,3.753h35.05a5.4,5.4,0,0,1,4.977,3.3l15.345,34.148a6.3,6.3,0,0,1-5.8,8.766H59.782a5.816,5.816,0,0,1-5.312-8.108L135.633,67.852A10.974,10.974,0,0,1,145.936,61h46.813a10.96,10.96,0,0,1,10.306,6.851l81.723,193.281a5.814,5.814,0,0,1-5.294,8.108Z" transform="translate(30.375 34.312)" fill="#fff"/>
</svg>
