<?xml version="1.0" standalone="no"?>
<!DOCTYPE svg PUBLIC "-//W3C//DTD SVG 20010904//EN"
 "http://www.w3.org/TR/2001/REC-SVG-20010904/DTD/svg10.dtd">
<svg version="1.0" xmlns="http://www.w3.org/2000/svg"
 width="472.000000pt" height="487.000000pt" viewBox="0 0 472.000000 487.000000"
 preserveAspectRatio="xMidYMid meet">

<g transform="translate(0.000000,487.000000) scale(0.100000,-0.100000)"
fill="#000000" stroke="none">
<path d="M0 2435 l1 -2435 2359 0 2360 0 0 2435 0 2435 -2360 0 -2360 0 0
-2435z m2628 1964 c645 -71 1212 -470 1493 -1053 354 -733 202 -1606 -378
-2167 -265 -256 -576 -423 -930 -499 -56 -12 -110 -20 -120 -17 -15 4 -14 5 3
6 12 0 67 15 124 31 371 111 685 369 859 710 112 219 155 400 155 650 -1 185
-20 299 -75 457 -165 468 -565 820 -1044 918 -386 79 -771 -1 -1105 -229 -166
-113 -352 -330 -447 -521 -174 -347 -194 -775 -52 -1140 169 -436 559 -773
1009 -869 36 -8 54 -15 42 -15 -13 -1 -70 8 -125 20 -562 113 -1063 507 -1312
1032 -366 772 -180 1670 465 2235 295 258 637 404 1065 455 69 9 283 6 373 -4z
m21 -1900 c187 -45 388 -173 510 -324 73 -91 153 -251 181 -360 136 -535 -213
-1061 -770 -1160 -14 -3 7 10 45 29 270 127 361 447 199 692 -21 31 -60 74
-88 97 -243 192 -590 114 -724 -163 -31 -64 -37 -88 -40 -161 -2 -47 1 -109 7
-138 32 -151 138 -275 288 -336 37 -15 50 -24 39 -28 -8 -3 -18 -2 -21 2 -3 5
-24 7 -48 5 -28 -3 -36 -2 -23 4 16 7 11 11 -30 21 -246 62 -471 247 -591 484
-221 440 -62 980 362 1230 113 66 255 115 385 131 68 8 234 -5 319 -25z m14
-1846 c-7 -2 -19 -2 -25 0 -7 3 -2 5 12 5 14 0 19 -2 13 -5z"/>
</g>
</svg>
